<?xml version="1.0" encoding="UTF-8" standalone="no"?>
<svg
   xmlns:dc="http://purl.org/dc/elements/1.1/"
   xmlns:cc="http://creativecommons.org/ns#"
   xmlns:rdf="http://www.w3.org/1999/02/22-rdf-syntax-ns#"
   xmlns:svg="http://www.w3.org/2000/svg"
   xmlns="http://www.w3.org/2000/svg"
   viewBox="0 0 3840 3840"
   height="3840"
   width="3840"
   xml:space="preserve"
   id="svg2"
   version="1.1">
  <metadata id="metadata8">
    <rdf:RDF>
      <cc:Work rdf:about="">
        <dc:format>image/svg+xml</dc:format>
        <dc:type rdf:resource="http://purl.org/dc/dcmitype/StillImage" />
      </cc:Work>
    </rdf:RDF>
  </metadata>
  <defs id="defs6">
    <clipPath id="clipPath18" clipPathUnits="userSpaceOnUse">
      <path style="clip-rule:evenodd" id="path16" d="M 0,7.3242e-4 H 2880 V 2880.0007 H 0 Z" />
    </clipPath>
    <clipPath id="clipPath28" clipPathUnits="userSpaceOnUse">
      <path style="clip-rule:evenodd" id="path26" d="M -1.5259e-5,7.3242e-4 H 2880 V 2880.0007 H -1.5259e-5 Z" />
    </clipPath>
  </defs>
  <g transform="matrix(1.3333333,0,0,-1.3333333,0,3840)" id="g10">
    <g id="g12">
      <g clip-path="url(#clipPath18)" id="g14">
        <path id="path20" style="fill:none;fill-opacity:1;fill-rule:evenodd;stroke:none" d="M 0,2.4414e-4 H 2880 V 2880.0002 H 0 Z" />
      </g>
    </g>
    <g id="g22">
      <g clip-path="url(#clipPath28)" id="g24">
        <path id="path30" style="fill:#FFFFFF;fill-opacity:1;fill-rule:evenodd;stroke:none" d="m 420.57,2879.51 c 124.32,0 225.09,-100.78 225.09,-225.09 0,-124.32 -100.77,-225.1 -225.09,-225.1 -124.31,0 -225.09,100.78 -225.09,225.1 0,124.31 100.78,225.09 225.09,225.09 z m 1237.17,0.48 c 50.44,-0.41 101.06,-17.7 142.72,-52.66 95.23,-79.91 107.65,-221.89 27.74,-317.12 L 645.66,1100.9 v -257 c 547.1,651.89 1094.2,1303.79 1641.3,1955.69 80.29,95.16 221.89,107.63 317.12,27.74 95.22,-79.88 107.65,-221.89 27.74,-317.12 l -898,-1070.18 898.03,-1070.24 c 79.91,-95.23 67.49,-237.21 -27.74,-317.122 -95.23,-79.909 -237.21,-67.488 -317.12,27.744 L 1439.98,1089.85 594.26,81.97 C 571.77,53.492 514.58,0.39673 420.57,0.055908 296.26,0.056396 195.48,100.83 195.48,225.15 V 2046.4 c 0,0 0,0 0,0 0,124.32 100.78,225.1 225.09,225.1 124.32,0 225.09,-100.78 225.09,-225.1 v -245.13 l 837.68,998.32 c 44.95,53.57 109.54,80.93 174.4,80.4 z" />
      </g>
    </g>
  </g>
</svg>